<?xml version="1.0"?>
<svg xmlns="http://www.w3.org/2000/svg" viewBox="0 0 88 88" width="512" height="512"><g id="Shopping_bag" data-name="Shopping bag"><path d="M80.9963,85.9092l-6-66A1,1,0,0,0,74,19H65.103l.159-1.7539A14.9189,14.9189,0,0,0,44.78,2.1,14.85,14.85,0,0,0,24.3782,14.5488L23.9735,19H14a1,1,0,0,0-.996.9092l-6,66A1,1,0,0,0,8,87H80A1.0282,1.0282,0,0,0,80.9963,85.9092ZM68,77.48l-8.7826,6.1768L64.9137,21H68Zm.99,1.7491L76.9254,85h-16.14Zm9.8146,4.6651L70,77.4911V21h3.087ZM50.426,3A12.8968,12.8968,0,0,1,63.27,17.0654L63.095,19H53.892l.159-1.7539a14.7445,14.7445,0,0,0-6.7749-13.85A13.0514,13.0514,0,0,1,50.426,3Zm1.458,16H37.1931l.3882-4.27A12.8281,12.8281,0,0,1,44.79,4.2864a12.8237,12.8237,0,0,1,7.2692,12.779ZM26.37,14.7305A12.83,12.83,0,0,1,42.3024,3.3924a14.8288,14.8288,0,0,0-6.7133,11.1564L35.1845,19H25.9822ZM14.9133,21H62.905L57.0868,85H9.0955Z"/></g></svg>
