<?xml version="1.0" encoding="utf-8"?>
<!-- Generator: Adobe Illustrator 27.2.0, SVG Export Plug-In . SVG Version: 6.00 Build 0)  -->
<svg version="1.1" id="Ebene_1" xmlns="http://www.w3.org/2000/svg" xmlns:xlink="http://www.w3.org/1999/xlink" x="0px" y="0px"
	 viewBox="0 0 114.4 114.4" style="enable-background:new 0 0 114.4 114.4;" xml:space="preserve">
<style type="text/css">
	.st0{fill:#FF99FF;stroke:#1D1D1B;stroke-miterlimit:10;}
</style>
<g>
	<circle class="st0" cx="74.2" cy="40.7" r="3.7"/>
	<path class="st0" d="M57.7,41.3c-8.8,0-15.9,7.1-15.9,15.9s7.1,15.9,15.9,15.9S73.6,66,73.6,57.2S66.4,41.3,57.7,41.3z M57.7,67.5
		c-5.7,0-10.3-4.6-10.3-10.3S52,46.9,57.7,46.9S68,51.5,68,57.2S63.4,67.5,57.7,67.5z"/>
	<path class="st0" d="M88.4,44.4c-0.2-3.3-0.7-5.5-1.4-7.5c-0.8-2-1.8-3.8-3.6-5.5c-1.7-1.7-3.4-2.8-5.5-3.6c-2-0.8-4.2-1.3-7.5-1.4
		s-4.4-0.2-12.8-0.2s-9.5,0-12.8,0.2s-5.5,0.7-7.5,1.4c-2,0.8-3.8,1.9-5.5,3.6c-1.7,1.7-2.8,3.4-3.6,5.5c-0.8,2-1.3,4.2-1.4,7.5
		s-0.2,4.4-0.2,12.8s0,9.5,0.2,12.8s0.7,5.6,1.4,7.5c0.8,2,1.9,3.8,3.6,5.5s3.4,2.8,5.5,3.6c2,0.8,4.2,1.3,7.5,1.4s4.4,0.2,12.8,0.2
		s9.5,0,12.8-0.2s5.6-0.7,7.5-1.4c2-0.8,3.8-1.8,5.5-3.6c1.7-1.7,2.8-3.4,3.6-5.5c0.8-2,1.3-4.2,1.4-7.5c0.2-3.3,0.2-4.4,0.2-12.8
		S88.6,47.7,88.4,44.4z M82.9,69.7c-0.1,3-0.6,4.7-1.1,5.8c-0.6,1.4-1.2,2.5-2.3,3.6s-2.1,1.8-3.6,2.3c-1.1,0.4-2.7,0.9-5.8,1.1
		c-3.3,0.2-4.2,0.2-12.5,0.2s-9.2,0-12.5-0.2c-3-0.1-4.7-0.6-5.8-1.1c-1.5-0.6-2.5-1.2-3.6-2.3c-1.1-1.1-1.8-2.1-2.3-3.6
		c-0.4-1.1-0.9-2.7-1.1-5.8c-0.2-3.3-0.2-4.2-0.2-12.5s0-9.2,0.2-12.5c0.1-3,0.6-4.7,1.1-5.8c0.6-1.5,1.2-2.5,2.3-3.6
		s2.1-1.8,3.6-2.3c1.1-0.4,2.7-0.9,5.8-1.1c3.3-0.1,4.2-0.2,12.5-0.2s9.2,0,12.5,0.2c3,0.1,4.7,0.6,5.8,1.1c1.4,0.6,2.5,1.2,3.6,2.3
		s1.8,2.1,2.3,3.6c0.4,1.1,0.9,2.7,1.1,5.8C83,47.9,83,48.9,83,57.2S83,66.4,82.9,69.7z"/>
</g>
</svg>
