<?xml version="1.0" encoding="utf-8"?>
<!-- Generator: Adobe Illustrator 27.2.0, SVG Export Plug-In . SVG Version: 6.00 Build 0)  -->
<svg version="1.1" id="Ebene_1" xmlns="http://www.w3.org/2000/svg" xmlns:xlink="http://www.w3.org/1999/xlink" x="0px" y="0px"
	 viewBox="0 0 114.4 114.4" style="enable-background:new 0 0 114.4 114.4;" xml:space="preserve">
<style type="text/css">
	.st0{fill:#FF99FF;stroke:#1D1D1B;stroke-miterlimit:10;}
</style>
<path class="st0" d="M16.4,70.3c0,0.2-0.2,0.3-0.4,0.3s-0.3-0.2-0.4-0.4l-0.9-7.7l0.9-7.9c0-0.2,0.2-0.3,0.4-0.3
	c0.2,0,0.3,0.1,0.4,0.3l1,7.9L16.4,70.3L16.4,70.3z M23.5,71.9c0,0.3-0.2,0.5-0.5,0.5s-0.5-0.2-0.5-0.5l-0.8-9.3l0.8-9.6
	c0-0.3,0.2-0.5,0.5-0.5s0.5,0.2,0.5,0.5l0.9,9.6L23.5,71.9z M30.7,72L30.7,72c0,0.4-0.3,0.7-0.7,0.7s-0.6-0.3-0.7-0.7l-0.7-9.4
	l0.7-14.5c0-0.4,0.3-0.7,0.7-0.7s0.6,0.3,0.7,0.7l0.8,14.5L30.7,72z M38,71.8c0,0.4-0.4,0.8-0.8,0.8s-0.8-0.3-0.8-0.8l-0.6-9.2
	l0.6-19.3c0-0.5,0.4-0.8,0.8-0.8s0.8,0.3,0.8,0.8l0.7,19.3L38,71.8L38,71.8z M45.4,71.7L45.4,71.7c0,0.5-0.4,0.9-1,0.9s-1-0.4-1-0.9
	L43,62.6l0.5-19.4c0-0.5,0.4-1,1-1s1,0.4,1,1L46,62.6L45.4,71.7z M52.9,71.5c0,0.6-0.5,1.1-1.1,1.1s-1.1-0.5-1.1-1.1
	c0,0-0.4-8.9-0.4-9l0.4-22.3c0-0.6,0.5-1.1,1.1-1.1s1.1,0.5,1.1,1.1l0.5,22.3L52.9,71.5L52.9,71.5z M88.8,72.7c-0.2,0-29.9,0-29.9,0
	c-0.6-0.1-1.2-0.6-1.2-1.3V37.1c0-0.6,0.2-1,1-1.3c2.1-0.8,4.5-1.3,6.9-1.3c9.9,0,18.1,7.6,19,17.4c1.3-0.5,2.7-0.8,4.2-0.8
	c6,0,10.8,4.8,10.8,10.8S94.7,72.7,88.8,72.7L88.8,72.7z"/>
</svg>
