<?xml version="1.0" encoding="UTF-8"?><svg id="Ebene_1" xmlns="http://www.w3.org/2000/svg" viewBox="0 0 101.03 101.03"><defs><style>.cls-1{fill:none;stroke:#1d1d1b;stroke-miterlimit:10;stroke-width:6.8px;}</style></defs><path class="cls-1" d="m97.63,50.52c0,2.24-43.76-1.3-44.32.76s39.08,20.94,38,22.81-37.21-23.07-38.75-21.53,23.43,37.65,21.53,38.75-20.68-38.57-22.81-38,1.47,44.32-.76,44.32,1.3-43.76-.76-44.32-20.94,39.08-22.81,38,23.07-37.21,21.53-38.75-37.65,23.43-38.75,21.53,38.57-20.68,38-22.81-44.32,1.47-44.32-.76,43.76,1.3,44.32-.76S8.64,28.81,9.72,26.94s37.21,23.07,38.75,21.53S25.04,10.82,26.94,9.72s20.68,38.57,22.81,38-1.47-44.32.76-44.32-1.3,43.76.76,44.32,20.94-39.08,22.81-38-23.07,37.21-21.53,38.75,37.65-23.43,38.75-21.53-38.57,20.68-38,22.81,44.32-1.47,44.32.76Z"/></svg>