<?xml version="1.0" encoding="UTF-8"?><svg id="Ebene_1" xmlns="http://www.w3.org/2000/svg" viewBox="0 0 109.84 101.35"><defs><style>.cls-1{stroke-width:3px;}.cls-1,.cls-2,.cls-3,.cls-4{fill-rule:evenodd;}.cls-1,.cls-2,.cls-4{fill:none;stroke:#fcee70;stroke-linecap:round;stroke-miterlimit:10;}.cls-2{stroke-width:2.56px;}.cls-3{fill:#fcee70;}.cls-4{stroke-width:2.01px;}</style></defs><g><path class="cls-3" d="m54.92,22.92C19.99,22.92,15,49.77,0,53.79c15,4.02,19.99,30.87,54.92,30.87s39.92-26.85,54.92-30.87c-15-4.02-19.99-30.87-54.92-30.87Zm0,58.11c-16.51,0-29.9-12.19-29.9-27.23s13.39-27.23,29.9-27.23,29.9,12.19,29.9,27.23-13.39,27.23-29.9,27.23Z"/><path class="cls-3" d="m54.92,43.11c-5.9,0-10.68,4.78-10.68,10.68s4.78,10.68,10.68,10.68,10.68-4.78,10.68-10.68-4.78-10.68-10.68-10.68h0Z"/></g><path class="cls-1" d="m11.69,36.6c.59-3.23,1.58-5.89,2.65-8.03,7.49-15.05,25.57-18.75,29.31-19.43"/><path class="cls-4" d="m8.1,20.98c.8-2,1.85-3.71,2.9-5.11C18.38,6,32.65,1.82,35.59,1.01"/><path class="cls-2" d="m70.46,18.85c2.74-.21,5.18.04,7.23.47,14.42,2.97,23.5,17.19,25.31,20.15"/><path class="cls-2" d="m40.45,100c-2.75.2-5.18-.07-7.23-.5-14.41-3.04-23.42-17.29-25.22-20.26"/></svg>