<?xml version="1.0" encoding="UTF-8"?><svg id="Ebene_1" xmlns="http://www.w3.org/2000/svg" viewBox="0 0 94.33 93.75"><defs><style>.cls-1{fill:none;stroke:#fcee70;stroke-width:.34px;}.cls-2{fill:#fcee70;}.cls-3{isolation:isolate;}</style></defs><g><g class="cls-3"><g class="cls-3"><path class="cls-2" d="m34.31,24.89c.1.1.13.22.08.36-.05.14-.14.22-.29.23-1.49.13-2.99.19-4.48.17-.15,0-.26-.07-.33-.21-.07-.14-.07-.26.02-.37.12-.15.24-.29.33-.39.1-.11.17-.21.21-.31.04-.1.03-.22-.03-.35-.06-.13-.17-.31-.35-.53-.15-.18-.33-.42-.54-.73-.21-.31-.45-.65-.7-1.02-.25-.37-.52-.77-.81-1.18-.28-.41-.58-.81-.87-1.19-.3-.38-.59-.73-.88-1.05-.29-.32-.56-.56-.82-.73-.1-.06-.16-.09-.2-.09-.12-.02-.22.01-.3.09-.08.08-.11.19-.09.33.16,1.36.31,2.72.47,4.08.02.19.09.44.19.73.11.29.27.59.48.89.21.3.48.57.81.83.33.25.73.44,1.19.54.07.02.11.05.13.11.01.06.01.12,0,.19-.02.07-.06.13-.11.18-.05.05-.12.07-.2.07-1.31-.1-2.62-.28-3.93-.54-.15-.03-.26-.12-.34-.27-.08-.15-.08-.27,0-.37.41-.48.69-.95.81-1.4.13-.45.17-.82.14-1.1-.16-1.33-.31-2.66-.47-3.99-.03-.28-.17-.69-.42-1.22-.25-.53-.66-1.14-1.24-1.84-.11-.14-.15-.27-.1-.39.05-.12.15-.16.3-.12.56.14,1.13.27,1.69.38.38.08.8.33,1.24.74.44.42.89.91,1.35,1.49.45.57.9,1.18,1.33,1.82.43.64.83,1.23,1.2,1.78.37.54.69,1,.97,1.36.28.36.5.56.66.59.13.02.23-.08.29-.29.06-.21.08-.5.06-.87-.02-.37-.08-.78-.18-1.25-.1-.47-.25-.94-.44-1.44-.19-.49-.43-.97-.72-1.45-.29-.47-.62-.9-1.01-1.28-.06-.05-.1-.11-.11-.18-.02-.07-.01-.13.01-.18.02-.06.06-.1.12-.14.06-.04.12-.05.21-.05,1.57.1,3.14.11,4.7.06.16,0,.27.06.34.18.07.13.06.25-.03.36-.46.55-.76,1.05-.92,1.51-.16.46-.23.82-.21,1.09.1,1.25.19,2.51.29,3.76,0,.13.04.28.09.47.05.19.13.39.25.62.11.23.26.47.45.73.19.26.42.52.7.79Z"/></g><g class="cls-3"><path class="cls-1" d="m34.31,24.89c.1.1.13.22.08.36-.05.14-.14.22-.29.23-1.49.13-2.99.19-4.48.17-.15,0-.26-.07-.33-.21-.07-.14-.07-.26.02-.37.12-.15.24-.29.33-.39.1-.11.17-.21.21-.31.04-.1.03-.22-.03-.35-.06-.13-.17-.31-.35-.53-.15-.18-.33-.42-.54-.73-.21-.31-.45-.65-.7-1.02-.25-.37-.52-.77-.81-1.18-.28-.41-.58-.81-.87-1.19-.3-.38-.59-.73-.88-1.05-.29-.32-.56-.56-.82-.73-.1-.06-.16-.09-.2-.09-.12-.02-.22.01-.3.09-.08.08-.11.19-.09.33.16,1.36.31,2.72.47,4.08.02.19.09.44.19.73.11.29.27.59.48.89.21.3.48.57.81.83.33.25.73.44,1.19.54.07.02.11.05.13.11.01.06.01.12,0,.19-.02.07-.06.13-.11.18-.05.05-.12.07-.2.07-1.31-.1-2.62-.28-3.93-.54-.15-.03-.26-.12-.34-.27-.08-.15-.08-.27,0-.37.41-.48.69-.95.81-1.4.13-.45.17-.82.14-1.1-.16-1.33-.31-2.66-.47-3.99-.03-.28-.17-.69-.42-1.22-.25-.53-.66-1.14-1.24-1.84-.11-.14-.15-.27-.1-.39.05-.12.15-.16.3-.12.56.14,1.13.27,1.69.38.38.08.8.33,1.24.74.44.42.89.91,1.35,1.49.45.57.9,1.18,1.33,1.82.43.64.83,1.23,1.2,1.78.37.54.69,1,.97,1.36.28.36.5.56.66.59.13.02.23-.08.29-.29.06-.21.08-.5.06-.87-.02-.37-.08-.78-.18-1.25-.1-.47-.25-.94-.44-1.44-.19-.49-.43-.97-.72-1.45-.29-.47-.62-.9-1.01-1.28-.06-.05-.1-.11-.11-.18-.02-.07-.01-.13.01-.18.02-.06.06-.1.12-.14.06-.04.12-.05.21-.05,1.57.1,3.14.11,4.7.06.16,0,.27.06.34.18.07.13.06.25-.03.36-.46.55-.76,1.05-.92,1.51-.16.46-.23.82-.21,1.09.1,1.25.19,2.51.29,3.76,0,.13.04.28.09.47.05.19.13.39.25.62.11.23.26.47.45.73.19.26.42.52.7.79Z"/></g></g><g class="cls-3"><g class="cls-3"><path class="cls-2" d="m39.26,16.36c.67-.08,1.31-.07,1.9.03.59.1,1.12.29,1.56.57.45.28.8.65,1.06,1.11.26.46.39,1.01.4,1.64.01.63-.1,1.23-.34,1.79-.24.56-.56,1.07-.98,1.51-.41.45-.9.82-1.46,1.12-.56.3-1.16.51-1.8.62-.64.11-1.25.1-1.83-.02-.58-.12-1.09-.35-1.54-.67-.45-.33-.81-.75-1.09-1.26-.28-.51-.44-1.1-.49-1.77-.04-.66.04-1.26.26-1.81.22-.54.53-1.01.95-1.4.42-.39.92-.71,1.5-.96.58-.25,1.21-.41,1.88-.5Zm-.55,5.81c.53.17,1.06.29,1.59.35.53.06,1.02.05,1.47-.02.39-.07.72-.19.99-.36.28-.17.47-.41.59-.71,0-.02.01-.04.02-.05,0-.01.01-.03.02-.05.07-.26.04-.52-.1-.76-.14-.24-.36-.47-.66-.69-.3-.21-.66-.41-1.08-.6-.42-.19-.86-.34-1.32-.47-.55-.16-1.1-.27-1.66-.34-.56-.07-1.07-.09-1.53-.04-.34.04-.64.11-.89.23-.25.12-.42.29-.52.52-.12.27-.11.55.02.84.13.29.34.57.64.84.3.27.66.52,1.08.75.42.23.87.42,1.33.57Z"/></g><g class="cls-3"><path class="cls-1" d="m39.26,16.36c.67-.08,1.31-.07,1.9.03.59.1,1.12.29,1.56.57.45.28.8.65,1.06,1.11.26.46.39,1.01.4,1.64.01.63-.1,1.23-.34,1.79-.24.56-.56,1.07-.98,1.51-.41.45-.9.82-1.46,1.12-.56.3-1.16.51-1.8.62-.64.11-1.25.1-1.83-.02-.58-.12-1.09-.35-1.54-.67-.45-.33-.81-.75-1.09-1.26-.28-.51-.44-1.1-.49-1.77-.04-.66.04-1.26.26-1.81.22-.54.53-1.01.95-1.4.42-.39.92-.71,1.5-.96.58-.25,1.21-.41,1.88-.5Zm-.55,5.81c.53.17,1.06.29,1.59.35.53.06,1.02.05,1.47-.02.39-.07.72-.19.99-.36.28-.17.47-.41.59-.71,0-.02.01-.04.02-.05,0-.01.01-.03.02-.05.07-.26.04-.52-.1-.76-.14-.24-.36-.47-.66-.69-.3-.21-.66-.41-1.08-.6-.42-.19-.86-.34-1.32-.47-.55-.16-1.1-.27-1.66-.34-.56-.07-1.07-.09-1.53-.04-.34.04-.64.11-.89.23-.25.12-.42.29-.52.52-.12.27-.11.55.02.84.13.29.34.57.64.84.3.27.66.52,1.08.75.42.23.87.42,1.33.57Z"/></g></g><g class="cls-3"><g class="cls-3"><path class="cls-2" d="m46.7,22.15c0,.17-.03.34-.09.5-.06.16-.14.31-.25.45-.11.14-.24.25-.38.35-.15.09-.3.16-.47.19-.33.07-.61,0-.84-.19-.23-.2-.35-.47-.36-.82,0-.17.03-.35.08-.51.06-.17.14-.32.25-.46.11-.14.23-.25.38-.34.14-.09.3-.15.47-.19.17-.03.33-.03.48,0,.15.04.28.1.39.19.11.09.2.21.26.35.06.14.09.3.09.47Z"/><path class="cls-2" d="m51.24,22.47c-.13.03-.24,0-.34-.06-.1-.06-.15-.16-.14-.29,0-.38.02-.77.04-1.15.01-.69.03-1.38.04-2.06,0-.08.03-.15.08-.21.05-.06.11-.09.18-.11.08-.01.14.01.2.07.27.27.6.55,1.01.83.4.28.84.53,1.32.75.48.22.98.38,1.5.49.52.11,1.02.13,1.52.06.24-.03.48-.09.7-.17.44-.16.81-.38,1.09-.66.29-.28.5-.6.63-.95.13-.35.18-.71.15-1.09-.03-.38-.14-.73-.35-1.06-.2-.33-.5-.63-.88-.88-.38-.25-.86-.42-1.41-.51-.3-.04-.6-.06-.89-.06-.29,0-.58.03-.85.06-.44.06-.87.15-1.27.27-.41.12-.78.24-1.12.37-.34.13-.64.24-.89.35-.26.1-.46.17-.61.19-.22.04-.32-.03-.32-.19,0-.13,0-.36,0-.67,0-.31,0-.64.01-.98,0-.34.01-.67.02-.97,0-.3.01-.51.03-.62,3.1-.46,6.2-.86,9.3-1.01.14,0,.23.03.27.1.04.07.06.16.05.27-.07.85-.13,1.71-.2,2.56,0,.09-.05.17-.12.22-.08.06-.16.09-.25.09-.08,0-.15-.01-.22-.06-.15-.11-.38-.24-.7-.4-.31-.16-.67-.32-1.06-.49-.4-.17-.83-.34-1.29-.5-.46-.16-.92-.3-1.37-.42-.46-.12-.89-.2-1.31-.26-.42-.06-.77-.06-1.08-.02-.11.01-.21.04-.31.06-.1.03-.18.07-.26.12-.01.04-.02.12-.01.26,0,.14,0,.29,0,.46,0,.17,0,.33,0,.47,0,.15,0,.25,0,.3,0,.25.06.4.2.45.14.05.35.06.63.02.2-.03.43-.07.7-.13.27-.05.56-.1.89-.15.35-.05.74-.07,1.15-.08.42,0,.86.03,1.34.12.65.11,1.2.34,1.66.69.46.34.79.74,1.01,1.17.22.44.3.9.25,1.39-.05.49-.26.94-.61,1.37-.36.43-.88.81-1.57,1.15-.69.34-1.56.59-2.64.76-1.3.21-2.59.45-3.89.7Z"/><path class="cls-2" d="m67.98,14.97c.62.16,1.19.39,1.7.69.52.3.94.64,1.27,1,.33.37.56.75.68,1.14.12.39.11.77-.04,1.14-.02.05-.05.14-.11.29-.06.15-.17.31-.32.49-.15.18-.36.35-.62.53-.26.18-.6.33-1.03.45-.42.13-.94.21-1.55.27-.61.06-1.34.06-2.2.02-.2,0-.47-.04-.81-.1-.34-.06-.7-.15-1.09-.28-.39-.13-.78-.3-1.17-.5-.4-.21-.75-.47-1.06-.79-.31-.32-.56-.71-.75-1.17-.19-.46-.26-1-.23-1.63.03-.63.18-1.18.44-1.65.26-.47.58-.87.97-1.19.39-.33.82-.59,1.28-.78.47-.19.93-.33,1.38-.42.45-.09.87-.14,1.25-.14.38,0,.69,0,.9.02,1.07.11,2.15.26,3.22.46.7.13,1.45.3,2.24.5-.41.84-.82,1.69-1.23,2.54,0-.44-.09-.84-.27-1.2-.18-.36-.43-.68-.74-.95-.31-.27-.68-.49-1.1-.67-.42-.17-.86-.29-1.31-.34-.13-.02-.26-.03-.39-.03-.13,0-.26,0-.39,0-.57.02-1.1.13-1.58.34-.48.21-.89.46-1.23.75-.34.29-.61.59-.81.9-.2.31-.31.58-.36.82.63-.32,1.28-.54,1.93-.65.65-.11,1.3-.14,1.93-.08.44.04.84.11,1.21.22Zm-4.65,2.72c.11.16.24.31.39.45.15.14.34.28.55.42.45.32.98.56,1.59.75.61.19,1.22.32,1.83.38.39.04.77.05,1.14.03.37-.02.69-.07.98-.16.28-.09.52-.22.7-.4.18-.18.29-.41.31-.7.02-.27-.04-.54-.21-.8-.16-.26-.39-.5-.7-.72-.3-.22-.67-.41-1.09-.58-.42-.17-.88-.3-1.38-.38-.22-.05-.5-.09-.84-.11-.34-.02-.7-.02-1.07,0-.37.03-.73.08-1.08.16-.35.08-.64.2-.87.35-.23.15-.38.33-.45.55-.07.22,0,.47.19.77Z"/></g><g class="cls-3"><path class="cls-1" d="m46.7,22.15c0,.17-.03.34-.09.5-.06.16-.14.31-.25.45-.11.14-.24.25-.38.35-.15.09-.3.16-.47.19-.33.07-.61,0-.84-.19-.23-.2-.35-.47-.36-.82,0-.17.03-.35.08-.51.06-.17.14-.32.25-.46.11-.14.23-.25.38-.34.14-.09.3-.15.47-.19.17-.03.33-.03.48,0,.15.04.28.1.39.19.11.09.2.21.26.35.06.14.09.3.09.47Z"/><path class="cls-1" d="m51.24,22.47c-.13.03-.24,0-.34-.06-.1-.06-.15-.16-.14-.29,0-.38.02-.77.04-1.15.01-.69.03-1.38.04-2.06,0-.08.03-.15.08-.21.05-.06.11-.09.18-.11.08-.01.14.01.2.07.27.27.6.55,1.01.83.4.28.84.53,1.32.75.48.22.98.38,1.5.49.52.11,1.02.13,1.52.06.24-.03.48-.09.7-.17.44-.16.81-.38,1.09-.66.29-.28.5-.6.63-.95.13-.35.18-.71.15-1.09-.03-.38-.14-.73-.35-1.06-.2-.33-.5-.63-.88-.88-.38-.25-.86-.42-1.41-.51-.3-.04-.6-.06-.89-.06-.29,0-.58.03-.85.06-.44.06-.87.15-1.27.27-.41.12-.78.24-1.12.37-.34.13-.64.24-.89.35-.26.1-.46.17-.61.19-.22.04-.32-.03-.32-.19,0-.13,0-.36,0-.67,0-.31,0-.64.01-.98,0-.34.01-.67.02-.97,0-.3.01-.51.03-.62,3.1-.46,6.2-.86,9.3-1.01.14,0,.23.03.27.1.04.07.06.16.05.27-.07.85-.13,1.71-.2,2.56,0,.09-.05.17-.12.22-.08.06-.16.09-.25.09-.08,0-.15-.01-.22-.06-.15-.11-.38-.24-.7-.4-.31-.16-.67-.32-1.06-.49-.4-.17-.83-.34-1.29-.5-.46-.16-.92-.3-1.37-.42-.46-.12-.89-.2-1.31-.26-.42-.06-.77-.06-1.08-.02-.11.01-.21.04-.31.06-.1.03-.18.07-.26.12-.01.04-.02.12-.01.26,0,.14,0,.29,0,.46,0,.17,0,.33,0,.47,0,.15,0,.25,0,.3,0,.25.06.4.2.45.14.05.35.06.63.02.2-.03.43-.07.7-.13.27-.05.56-.1.89-.15.35-.05.74-.07,1.15-.08.42,0,.86.03,1.34.12.65.11,1.2.34,1.66.69.46.34.79.74,1.01,1.17.22.44.3.9.25,1.39-.05.49-.26.94-.61,1.37-.36.43-.88.81-1.57,1.15-.69.34-1.56.59-2.64.76-1.3.21-2.59.45-3.89.7Z"/><path class="cls-1" d="m67.98,14.97c.62.16,1.19.39,1.7.69.52.3.94.64,1.27,1,.33.37.56.75.68,1.14.12.39.11.77-.04,1.14-.02.05-.05.14-.11.29-.06.15-.17.31-.32.49-.15.18-.36.35-.62.53-.26.18-.6.33-1.03.45-.42.13-.94.21-1.55.27-.61.06-1.34.06-2.2.02-.2,0-.47-.04-.81-.1-.34-.06-.7-.15-1.09-.28-.39-.13-.78-.3-1.17-.5-.4-.21-.75-.47-1.06-.79-.31-.32-.56-.71-.75-1.17-.19-.46-.26-1-.23-1.63.03-.63.18-1.18.44-1.65.26-.47.58-.87.97-1.19.39-.33.82-.59,1.28-.78.47-.19.93-.33,1.38-.42.45-.09.87-.14,1.25-.14.38,0,.69,0,.9.02,1.07.11,2.15.26,3.22.46.7.13,1.45.3,2.24.5-.41.84-.82,1.69-1.23,2.54,0-.44-.09-.84-.27-1.2-.18-.36-.43-.68-.74-.95-.31-.27-.68-.49-1.1-.67-.42-.17-.86-.29-1.31-.34-.13-.02-.26-.03-.39-.03-.13,0-.26,0-.39,0-.57.02-1.1.13-1.58.34-.48.21-.89.46-1.23.75-.34.29-.61.59-.81.9-.2.31-.31.58-.36.82.63-.32,1.28-.54,1.93-.65.65-.11,1.3-.14,1.93-.08.44.04.84.11,1.21.22Zm-4.65,2.72c.11.16.24.31.39.45.15.14.34.28.55.42.45.32.98.56,1.59.75.61.19,1.22.32,1.83.38.39.04.77.05,1.14.03.37-.02.69-.07.98-.16.28-.09.52-.22.7-.4.18-.18.29-.41.31-.7.02-.27-.04-.54-.21-.8-.16-.26-.39-.5-.7-.72-.3-.22-.67-.41-1.09-.58-.42-.17-.88-.3-1.38-.38-.22-.05-.5-.09-.84-.11-.34-.02-.7-.02-1.07,0-.37.03-.73.08-1.08.16-.35.08-.64.2-.87.35-.23.15-.38.33-.45.55-.07.22,0,.47.19.77Z"/></g></g><g class="cls-3"><g class="cls-3"><path class="cls-2" d="m25.11,48.33c.06.45.26,1.07.6,1.85.34.78.89,1.64,1.65,2.53.15.18.19.37.14.59-.05.22-.18.33-.37.33-1.73-.03-3.46-.25-5.19-.68-.1-.03-.18-.08-.23-.17-.05-.09-.08-.18-.09-.27,0-.1,0-.19.04-.26.04-.08.1-.12.19-.13.63-.03,1.1-.23,1.41-.58.31-.35.53-.73.65-1.15.12-.42.18-.83.16-1.25-.01-.41-.04-.73-.07-.96-.22-1.68-.45-3.36-.67-5.04.09.69.1,1.39.03,2.07-.07.69-.19,1.34-.36,1.97-.17.62-.38,1.2-.62,1.72-.25.52-.5.97-.76,1.33-.26.37-.52.65-.78.84-.26.19-.49.26-.69.23-.1-.02-.3-.18-.6-.49-.3-.31-.64-.73-1.03-1.27-.39-.54-.81-1.18-1.26-1.94-.45-.76-.89-1.59-1.31-2.48-.42-.89-.8-1.83-1.13-2.8-.34-.97-.59-1.92-.75-2.84.3,1.77.61,3.53.91,5.3.07.4.2.88.4,1.45.2.56.45,1.14.76,1.73.31.59.68,1.17,1.11,1.72.43.56.93,1.03,1.48,1.4.1.06.17.14.23.25.05.11.08.21.09.31,0,.1-.01.17-.05.23-.04.05-.11.06-.2.02-1.75-.73-3.5-1.73-5.26-3.03-.2-.15-.36-.38-.48-.69-.13-.31-.14-.52-.05-.62.46-.5.75-1.1.85-1.77.1-.67.11-1.24.02-1.74-.41-2.31-.81-4.62-1.22-6.94-.08-.48-.33-1.23-.74-2.27-.41-1.05-1.05-2.34-1.94-3.95-.17-.32-.24-.56-.2-.74.04-.17.17-.17.39.02.05.04.17.15.37.31.2.16.43.35.71.57.28.22.59.45.93.69.34.24.68.48,1.02.7.82.55,1.73,1.11,2.73,1.63-.37.64-.57,1.44-.59,2.4-.02.96.07,2,.27,3.09.2,1.09.49,2.19.85,3.29.36,1.1.75,2.1,1.15,2.99.41.9.81,1.64,1.2,2.24.39.59.73.94,1.01,1.06.3.12.55.05.76-.19.21-.25.4-.62.54-1.12.15-.49.26-1.09.32-1.79.07-.7.09-1.44.08-2.23-.01-.78-.06-1.58-.15-2.38-.09-.8-.22-1.57-.4-2.3-.18-.73-.4-1.41-.66-2.02-.27-.62-.58-1.12-.94-1.52,1.91.69,3.82,1.12,5.73,1.36.21.03.38.16.5.4.12.24.11.44,0,.6-.6.81-.98,1.57-1.14,2.3-.16.73-.22,1.31-.16,1.74.27,2.11.54,4.21.81,6.32Z"/></g><g class="cls-3"><path class="cls-1" d="m25.11,48.33c.06.45.26,1.07.6,1.85.34.78.89,1.64,1.65,2.53.15.18.19.37.14.59-.05.22-.18.33-.37.33-1.73-.03-3.46-.25-5.19-.68-.1-.03-.18-.08-.23-.17-.05-.09-.08-.18-.09-.27,0-.1,0-.19.04-.26.04-.08.1-.12.19-.13.63-.03,1.1-.23,1.41-.58.31-.35.53-.73.65-1.15.12-.42.18-.83.16-1.25-.01-.41-.04-.73-.07-.96-.22-1.68-.45-3.36-.67-5.04.09.69.1,1.39.03,2.07-.07.69-.19,1.34-.36,1.97-.17.62-.38,1.2-.62,1.72-.25.52-.5.97-.76,1.33-.26.37-.52.65-.78.84-.26.19-.49.26-.69.23-.1-.02-.3-.18-.6-.49-.3-.31-.64-.73-1.03-1.27-.39-.54-.81-1.18-1.26-1.94-.45-.76-.89-1.59-1.31-2.48-.42-.89-.8-1.83-1.13-2.8-.34-.97-.59-1.92-.75-2.84.3,1.77.61,3.53.91,5.3.07.4.2.88.4,1.45.2.56.45,1.14.76,1.73.31.59.68,1.17,1.11,1.72.43.56.93,1.03,1.48,1.4.1.06.17.14.23.25.05.11.08.21.09.31,0,.1-.01.17-.05.23-.04.05-.11.06-.2.02-1.75-.73-3.5-1.73-5.26-3.03-.2-.15-.36-.38-.48-.69-.13-.31-.14-.52-.05-.62.46-.5.75-1.1.85-1.77.1-.67.11-1.24.02-1.74-.41-2.31-.81-4.62-1.22-6.94-.08-.48-.33-1.23-.74-2.27-.41-1.05-1.05-2.34-1.94-3.95-.17-.32-.24-.56-.2-.74.04-.17.17-.17.39.02.05.04.17.15.37.31.2.16.43.35.71.57.28.22.59.45.93.69.34.24.68.48,1.02.7.82.55,1.73,1.11,2.73,1.63-.37.64-.57,1.44-.59,2.4-.02.96.07,2,.27,3.09.2,1.09.49,2.19.85,3.29.36,1.1.75,2.1,1.15,2.99.41.9.81,1.64,1.2,2.24.39.59.73.94,1.01,1.06.3.12.55.05.76-.19.21-.25.4-.62.54-1.12.15-.49.26-1.09.32-1.79.07-.7.09-1.44.08-2.23-.01-.78-.06-1.58-.15-2.38-.09-.8-.22-1.57-.4-2.3-.18-.73-.4-1.41-.66-2.02-.27-.62-.58-1.12-.94-1.52,1.91.69,3.82,1.12,5.73,1.36.21.03.38.16.5.4.12.24.11.44,0,.6-.6.81-.98,1.57-1.14,2.3-.16.73-.22,1.31-.16,1.74.27,2.11.54,4.21.81,6.32Z"/></g></g><g class="cls-3"><g class="cls-3"><path class="cls-2" d="m29.88,46.29c-.03.08-.17.08-.42-.01-.25-.09-.55-.24-.89-.45-.34-.21-.7-.49-1.06-.83-.36-.34-.67-.71-.93-1.11-.25-.4-.41-.82-.47-1.24-.06-.43.04-.83.31-1.22.36-.49.86-.86,1.52-1.13.65-.27,1.39-.41,2.22-.45.83-.04,1.72.04,2.66.22.94.18,1.86.49,2.75.94.89.45,1.73,1.04,2.51,1.79.78.75,1.44,1.68,1.97,2.82.07.13.17.27.3.41.13.15.28.28.43.39.15.12.32.2.49.25.17.05.32.05.45.01.13-.04.23-.14.3-.28.07-.15.1-.37.1-.66-.03-1.06-.07-2.12-.1-3.17,0-.2-.04-.44-.11-.7-.07-.26-.18-.54-.32-.84-.15-.3-.34-.6-.59-.93-.25-.32-.55-.64-.92-.97-.14-.13-.18-.3-.1-.53.08-.23.22-.36.44-.42,1.36-.34,2.72-.71,4.07-1.09.21-.06.36,0,.45.17.09.18.07.36-.07.56-.68,1-1.14,1.89-1.38,2.67-.24.78-.35,1.41-.34,1.89.02.83.04,1.66.06,2.48,0-.06,0-.28.02-.67.01-.39.06-.87.15-1.45.08-.58.21-1.2.39-1.87.18-.67.43-1.31.77-1.94.34-.62.77-1.18,1.29-1.68.52-.49,1.17-.85,1.93-1.07.77-.22,1.48-.16,2.12.19.64.35,1.2.85,1.7,1.5.5.66.93,1.41,1.29,2.26.36.85.67,1.67.92,2.46.25.79.44,1.5.58,2.13.14.63.23,1.06.29,1.3-1.95.62-3.9,1.33-5.84,2.06.39-.45.76-1,1.09-1.65.28-.54.53-1.22.77-2.03.24-.81.38-1.75.41-2.81.02-.62-.06-1.17-.22-1.65-.17-.48-.41-.86-.73-1.14-.32-.28-.71-.46-1.18-.52-.46-.06-.98.01-1.55.23-.55.21-1.06.57-1.52,1.07-.46.5-.86,1.09-1.19,1.75-.33.66-.58,1.37-.75,2.13-.17.76-.25,1.48-.23,2.16.02.68.13,1.3.34,1.85.21.55.54.95.98,1.2.07.05.11.11.12.2.01.09,0,.18-.03.28-.03.1-.09.19-.16.29-.07.09-.16.16-.27.2-.74.27-1.39.51-1.97.7-.24.09-.48.17-.72.25-.24.08-.45.15-.64.21-.19.06-.4.12-.63.18-.02,0-.11,0-.26-.05-.15-.04-.32-.19-.52-.46-.2-.27-.42-.71-.65-1.32-.23-.61-.44-1.48-.64-2.61-.03.87-.15,1.67-.36,2.37-.22.71-.49,1.32-.82,1.83-.33.51-.68.93-1.07,1.24-.38.31-.75.51-1.11.6-1.66.4-3.31.7-4.97.86-.36.04-.7-.02-1.04-.16-.34-.14-.65-.36-.91-.64-.27-.28-.5-.62-.68-1.01-.18-.39-.3-.8-.36-1.24-.05-.43,0-.83.17-1.21.16-.38.44-.72.84-1.01.4-.3.91-.54,1.55-.74.64-.2,1.41-.35,2.3-.47,2-.26,4-.68,6-1.21-.53-1.23-1.2-2.09-2.02-2.61-.82-.52-1.67-.71-2.54-.58-.77.11-1.49.48-2.15,1.1-.66.62-1.2,1.49-1.62,2.64Zm1.25,3.73c.03.26.09.51.2.74.11.23.25.42.43.58.17.16.37.27.58.35.21.08.43.09.67.05.46-.08,1-.29,1.6-.62.61-.34,1.18-.75,1.72-1.23.54-.48,1-1.01,1.36-1.58.37-.56.54-1.11.51-1.62-1.85.49-3.7.9-5.56,1.17-.24.03-.46.11-.65.24-.2.13-.37.29-.5.48-.14.19-.24.42-.3.66-.07.25-.08.51-.06.79Z"/></g><g class="cls-3"><path class="cls-1" d="m29.88,46.29c-.03.08-.17.08-.42-.01-.25-.09-.55-.24-.89-.45-.34-.21-.7-.49-1.06-.83-.36-.34-.67-.71-.93-1.11-.25-.4-.41-.82-.47-1.24-.06-.43.04-.83.31-1.22.36-.49.86-.86,1.52-1.13.65-.27,1.39-.41,2.22-.45.83-.04,1.72.04,2.66.22.94.18,1.86.49,2.75.94.89.45,1.73,1.04,2.51,1.79.78.75,1.44,1.68,1.97,2.82.07.13.17.27.3.41.13.15.28.28.43.39.15.12.32.2.49.25.17.05.32.05.45.01.13-.04.23-.14.3-.28.07-.15.1-.37.1-.66-.03-1.06-.07-2.12-.1-3.17,0-.2-.04-.44-.11-.7-.07-.26-.18-.54-.32-.84-.15-.3-.34-.6-.59-.93-.25-.32-.55-.64-.92-.97-.14-.13-.18-.3-.1-.53.08-.23.22-.36.44-.42,1.36-.34,2.72-.71,4.07-1.09.21-.06.36,0,.45.17.09.18.07.36-.07.56-.68,1-1.14,1.89-1.38,2.67-.24.78-.35,1.41-.34,1.89.02.83.04,1.66.06,2.48,0-.06,0-.28.02-.67.01-.39.06-.87.15-1.45.08-.58.21-1.2.39-1.87.18-.67.43-1.31.77-1.94.34-.62.77-1.18,1.29-1.68.52-.49,1.17-.85,1.93-1.07.77-.22,1.48-.16,2.12.19.64.35,1.2.85,1.7,1.5.5.66.93,1.41,1.29,2.26.36.85.67,1.67.92,2.46.25.79.44,1.5.58,2.13.14.63.23,1.06.29,1.3-1.95.62-3.9,1.33-5.84,2.06.39-.45.76-1,1.09-1.65.28-.54.53-1.22.77-2.03.24-.81.38-1.75.41-2.81.02-.62-.06-1.17-.22-1.65-.17-.48-.41-.86-.73-1.14-.32-.28-.71-.46-1.18-.52-.46-.06-.98.01-1.55.23-.55.21-1.06.57-1.52,1.07-.46.5-.86,1.09-1.19,1.75-.33.66-.58,1.37-.75,2.13-.17.76-.25,1.48-.23,2.16.02.68.13,1.3.34,1.85.21.55.54.95.98,1.2.07.05.11.11.12.2.01.09,0,.18-.03.28-.03.1-.09.19-.16.29-.07.09-.16.16-.27.2-.74.27-1.39.51-1.97.7-.24.09-.48.17-.72.25-.24.08-.45.15-.64.21-.19.06-.4.12-.63.18-.02,0-.11,0-.26-.05-.15-.04-.32-.19-.52-.46-.2-.27-.42-.71-.65-1.32-.23-.61-.44-1.48-.64-2.61-.03.87-.15,1.67-.36,2.37-.22.71-.49,1.32-.82,1.83-.33.51-.68.93-1.07,1.24-.38.31-.75.51-1.11.6-1.66.4-3.31.7-4.97.86-.36.04-.7-.02-1.04-.16-.34-.14-.65-.36-.91-.64-.27-.28-.5-.62-.68-1.01-.18-.39-.3-.8-.36-1.24-.05-.43,0-.83.17-1.21.16-.38.44-.72.84-1.01.4-.3.91-.54,1.55-.74.64-.2,1.41-.35,2.3-.47,2-.26,4-.68,6-1.21-.53-1.23-1.2-2.09-2.02-2.61-.82-.52-1.67-.71-2.54-.58-.77.11-1.49.48-2.15,1.1-.66.62-1.2,1.49-1.62,2.64Zm1.25,3.73c.03.26.09.51.2.74.11.23.25.42.43.58.17.16.37.27.58.35.21.08.43.09.67.05.46-.08,1-.29,1.6-.62.61-.34,1.18-.75,1.72-1.23.54-.48,1-1.01,1.36-1.58.37-.56.54-1.11.51-1.62-1.85.49-3.7.9-5.56,1.17-.24.03-.46.11-.65.24-.2.13-.37.29-.5.48-.14.19-.24.42-.3.66-.07.25-.08.51-.06.79Z"/></g><g class="cls-3"><path class="cls-2" d="m66.24,43.12c.11.14.11.29,0,.47-.1.18-.25.26-.44.27-2.07.06-4.15.36-6.22.81-1.24.26-2.27.39-3.1.31-.83-.07-1.5-.29-2-.67-.5-.38-.86-.88-1.06-1.51-.21-.63-.29-1.34-.26-2.12.03-.81.19-1.61.47-2.41.28-.8.67-1.54,1.18-2.21.51-.67,1.12-1.24,1.84-1.71.72-.47,1.52-.78,2.4-.93.88-.15,1.65-.09,2.3.16.65.25,1.18.63,1.59,1.14.41.51.71,1.12.88,1.82.18.7.25,1.44.23,2.21.16-1.32.32-2.64.49-3.97.04-.36-.02-.84-.2-1.44-.18-.6-.58-1.25-1.2-1.94-.12-.13-.13-.29-.02-.47.11-.18.27-.28.48-.29,1.37-.07,2.75-.05,4.12.05.22.02.35.11.41.29.06.18,0,.33-.15.45-.81.64-1.37,1.28-1.71,1.88-.34.6-.53,1.08-.57,1.44-.22,1.67-.44,3.34-.66,5.01-.05.35.01.83.17,1.42.16.59.52,1.22,1.06,1.92Zm-7.32-7.42c-.33.06-.66.18-.98.37-.32.18-.62.42-.9.71-.28.29-.53.64-.74,1.03-.22.4-.39.84-.51,1.34-.16.67-.2,1.27-.12,1.8.08.54.23.99.46,1.38.22.38.49.69.79.92.3.23.6.38.89.44.51.09.97.16,1.4.2.43.04.86.01,1.3-.07.65-.12,1.36-.42,2.14-.86.3-.92.43-1.78.39-2.58-.05-.8-.2-1.52-.47-2.14-.27-.63-.62-1.15-1.06-1.57-.44-.42-.89-.71-1.36-.87-.36-.14-.77-.17-1.22-.09Z"/></g><g class="cls-3"><path class="cls-1" d="m66.24,43.12c.11.14.11.29,0,.47-.1.18-.25.26-.44.27-2.07.06-4.15.36-6.22.81-1.24.26-2.27.39-3.1.31-.83-.07-1.5-.29-2-.67-.5-.38-.86-.88-1.06-1.51-.21-.63-.29-1.34-.26-2.12.03-.81.19-1.61.47-2.41.28-.8.67-1.54,1.18-2.21.51-.67,1.12-1.24,1.84-1.71.72-.47,1.52-.78,2.4-.93.88-.15,1.65-.09,2.3.16.65.25,1.18.63,1.59,1.14.41.51.71,1.12.88,1.82.18.7.25,1.44.23,2.21.16-1.32.32-2.64.49-3.97.04-.36-.02-.84-.2-1.44-.18-.6-.58-1.25-1.2-1.94-.12-.13-.13-.29-.02-.47.11-.18.27-.28.48-.29,1.37-.07,2.75-.05,4.12.05.22.02.35.11.41.29.06.18,0,.33-.15.45-.81.64-1.37,1.28-1.71,1.88-.34.6-.53,1.08-.57,1.44-.22,1.67-.44,3.34-.66,5.01-.05.35.01.83.17,1.42.16.59.52,1.22,1.06,1.92Zm-7.32-7.42c-.33.06-.66.18-.98.37-.32.18-.62.42-.9.71-.28.29-.53.64-.74,1.03-.22.4-.39.84-.51,1.34-.16.67-.2,1.27-.12,1.8.08.54.23.99.46,1.38.22.38.49.69.79.92.3.23.6.38.89.44.51.09.97.16,1.4.2.43.04.86.01,1.3-.07.65-.12,1.36-.42,2.14-.86.3-.92.43-1.78.39-2.58-.05-.8-.2-1.52-.47-2.14-.27-.63-.62-1.15-1.06-1.57-.44-.42-.89-.71-1.36-.87-.36-.14-.77-.17-1.22-.09Z"/></g></g><g class="cls-3"><g class="cls-3"><path class="cls-2" d="m83.5,39.32c.17.15.29.28.35.39.06.12.08.21.06.28-.02.07-.07.12-.15.16-.08.04-.15.07-.24.08-.21.03-.45.07-.72.14-.26.06-.52.15-.76.26-.24.11-.46.26-.64.43-.18.18-.31.38-.38.62-.63,2.06-1.25,4.13-1.88,6.19-.25.82-.56,1.48-.91,1.98-.35.5-.74.88-1.16,1.16-.42.27-.85.45-1.3.55-.45.1-.9.15-1.35.15-.45,0-.88-.04-1.3-.11-.42-.07-.8-.14-1.15-.23-.25-.06-.47-.12-.67-.18-.2-.06-.37-.11-.52-.17-.17-.06-.32-.11-.46-.17.31-1.56.62-3.11.93-4.67,1.38.28,2.53.49,3.45.51.92.01,1.69-.11,2.31-.44.62-.33,1.12-.84,1.5-1.56.38-.72.71-1.59,1-2.63-.1.23-.24.48-.41.77-.17.28-.37.56-.61.83-.24.27-.51.51-.81.73-.31.22-.65.39-1.02.52-.38.12-.8.18-1.26.17-.46,0-.96-.11-1.5-.29-.53-.18-1-.45-1.41-.84-.41-.38-.79-.83-1.12-1.34-.33-.52-.62-1.09-.87-1.72-.25-.63-.47-1.28-.66-1.94-.19-.66-.36-1.32-.5-1.98-.14-.66-.26-1.26-.35-1.82-.09-.56-.17-1.04-.22-1.46-.06-.41-.1-.71-.14-.89,2.11.23,4.23.7,6.34,1.48-.48.1-.93.32-1.36.67-.36.29-.72.72-1.08,1.28-.36.56-.62,1.32-.8,2.25-.1.53-.11,1.04-.02,1.53.09.49.25.94.51,1.35.25.41.58.76.99,1.06.41.3.88.53,1.43.7.62.19,1.22.22,1.82.08.6-.14,1.14-.38,1.62-.73.48-.35.87-.8,1.17-1.35.3-.56.43-1.17.4-1.84-.02-.31-.11-.66-.27-1.08-.16-.41-.36-.85-.6-1.3-.08-.19-.09-.33-.02-.43.07-.1.17-.14.31-.13.05,0,.11.01.17.02.06,0,.11.03.18.07,1.36.81,2.72,1.78,4.08,2.91Z"/></g><g class="cls-3"><path class="cls-1" d="m83.5,39.32c.17.15.29.28.35.39.06.12.08.21.06.28-.02.07-.07.12-.15.16-.08.04-.15.07-.24.08-.21.03-.45.07-.72.14-.26.06-.52.15-.76.26-.24.11-.46.26-.64.43-.18.18-.31.38-.38.62-.63,2.06-1.25,4.13-1.88,6.19-.25.82-.56,1.48-.91,1.98-.35.5-.74.88-1.16,1.16-.42.27-.85.45-1.3.55-.45.1-.9.15-1.35.15-.45,0-.88-.04-1.3-.11-.42-.07-.8-.14-1.15-.23-.25-.06-.47-.12-.67-.18-.2-.06-.37-.11-.52-.17-.17-.06-.32-.11-.46-.17.31-1.56.62-3.11.93-4.67,1.38.28,2.53.49,3.45.51.92.01,1.69-.11,2.31-.44.62-.33,1.12-.84,1.5-1.56.38-.72.71-1.59,1-2.63-.1.23-.24.48-.41.77-.17.28-.37.56-.61.83-.24.27-.51.51-.81.73-.31.22-.65.39-1.02.52-.38.12-.8.18-1.26.17-.46,0-.96-.11-1.5-.29-.53-.18-1-.45-1.41-.84-.41-.38-.79-.83-1.12-1.34-.33-.52-.62-1.09-.87-1.72-.25-.63-.47-1.28-.66-1.94-.19-.66-.36-1.32-.5-1.98-.14-.66-.26-1.26-.35-1.82-.09-.56-.17-1.04-.22-1.46-.06-.41-.1-.71-.14-.89,2.11.23,4.23.7,6.34,1.48-.48.1-.93.32-1.36.67-.36.29-.72.72-1.08,1.28-.36.56-.62,1.32-.8,2.25-.1.53-.11,1.04-.02,1.53.09.49.25.94.51,1.35.25.41.58.76.99,1.06.41.3.88.53,1.43.7.62.19,1.22.22,1.82.08.6-.14,1.14-.38,1.62-.73.48-.35.87-.8,1.17-1.35.3-.56.43-1.17.4-1.84-.02-.31-.11-.66-.27-1.08-.16-.41-.36-.85-.6-1.3-.08-.19-.09-.33-.02-.43.07-.1.17-.14.31-.13.05,0,.11.01.17.02.06,0,.11.03.18.07,1.36.81,2.72,1.78,4.08,2.91Z"/></g></g><g class="cls-3"><g class="cls-3"><path class="cls-2" d="m32.96,71.06c.13.77.16,1.51.1,2.21-.06.7-.21,1.33-.46,1.88-.24.56-.58,1.03-1.02,1.41-.43.38-.96.63-1.58.74-.25.04-.51.06-.81.05-.45-.02-.86-.15-1.23-.37-.36-.23-.68-.47-.96-.72-.27-.26-.5-.49-.67-.7-.17-.21-.3-.31-.38-.32-.09,0-.12.16-.08.49.04.33.14.91.29,1.75.09.46.21.9.37,1.33.16.43.34.82.53,1.17.19.35.38.67.58.94.19.27.37.51.52.71.13.17.19.36.17.59-.01.22-.1.34-.26.36-1.18.11-2.37.1-3.55-.04-.16-.02-.29-.15-.39-.39-.1-.24-.11-.44-.03-.61.38-.88.62-1.71.7-2.47.08-.76.09-1.37.02-1.84-.32-2.17-.65-4.33-.97-6.5-.03-.23-.1-.51-.19-.83-.09-.32-.23-.69-.41-1.09-.18-.41-.4-.85-.66-1.34-.26-.49-.58-1-.94-1.53-.15-.24-.21-.46-.17-.67.03-.21.14-.28.32-.23.1.03.22.06.37.1.15.04.3.06.44.08.17.04.35.08.53.11.33.03.64.06.95.09.31.03.6.05.88.08,1.44.14,2.65.29,3.62.58.97.29,1.76.65,2.37,1.13.61.48,1.06,1.05,1.37,1.72.3.67.51,1.39.64,2.14Zm-6.02,3.47c.18.19.43.39.75.57.32.19.67.26,1.05.22.21-.02.42-.1.63-.22.21-.13.42-.32.63-.58.25-.33.42-.71.51-1.14.1-.43.1-.87.02-1.33-.08-.46-.26-.9-.53-1.34-.27-.44-.65-.84-1.14-1.21-.53-.41-1.06-.69-1.56-.84-.51-.14-.96-.23-1.37-.25-.34-.02-.63,0-.88.02-.25.03-.45.06-.58.07.05.54.15,1.09.3,1.66.15.57.34,1.12.57,1.66.22.54.47,1.04.74,1.5.27.46.56.87.85,1.2Z"/></g><g class="cls-3"><path class="cls-1" d="m32.96,71.06c.13.77.16,1.51.1,2.21-.06.7-.21,1.33-.46,1.88-.24.56-.58,1.03-1.02,1.41-.43.38-.96.63-1.58.74-.25.04-.51.06-.81.05-.45-.02-.86-.15-1.23-.37-.36-.23-.68-.47-.96-.72-.27-.26-.5-.49-.67-.7-.17-.21-.3-.31-.38-.32-.09,0-.12.16-.08.49.04.33.14.91.29,1.75.09.46.21.9.37,1.33.16.43.34.82.53,1.17.19.35.38.67.58.94.19.27.37.51.52.71.13.17.19.36.17.59-.01.22-.1.34-.26.36-1.18.11-2.37.1-3.55-.04-.16-.02-.29-.15-.39-.39-.1-.24-.11-.44-.03-.61.38-.88.62-1.71.7-2.47.08-.76.09-1.37.02-1.84-.32-2.17-.65-4.33-.97-6.5-.03-.23-.1-.51-.19-.83-.09-.32-.23-.69-.41-1.09-.18-.41-.4-.85-.66-1.34-.26-.49-.58-1-.94-1.53-.15-.24-.21-.46-.17-.67.03-.21.14-.28.32-.23.1.03.22.06.37.1.15.04.3.06.44.08.17.04.35.08.53.11.33.03.64.06.95.09.31.03.6.05.88.08,1.44.14,2.65.29,3.62.58.97.29,1.76.65,2.37,1.13.61.48,1.06,1.05,1.37,1.72.3.67.51,1.39.64,2.14Zm-6.02,3.47c.18.19.43.39.75.57.32.19.67.26,1.05.22.21-.02.42-.1.63-.22.21-.13.42-.32.63-.58.25-.33.42-.71.51-1.14.1-.43.1-.87.02-1.33-.08-.46-.26-.9-.53-1.34-.27-.44-.65-.84-1.14-1.21-.53-.41-1.06-.69-1.56-.84-.51-.14-.96-.23-1.37-.25-.34-.02-.63,0-.88.02-.25.03-.45.06-.58.07.05.54.15,1.09.3,1.66.15.57.34,1.12.57,1.66.22.54.47,1.04.74,1.5.27.46.56.87.85,1.2Z"/></g></g><g class="cls-3"><g class="cls-3"><path class="cls-2" d="m38.82,78.07c.07.02.11.09.13.19.02.1.01.21-.02.32-.03.11-.07.22-.13.32-.06.1-.13.17-.21.21-1.68.86-3.36,1.62-5.03,2.21-.09.03-.17.02-.24-.03-.07-.05-.13-.11-.18-.19-.04-.08-.07-.18-.07-.29,0-.11.03-.22.09-.32.46-.66.8-1.43,1.04-2.27.24-.85.4-1.64.5-2.39.12-.87.19-1.75.19-2.65-.03-.37-.06-.73-.1-1.1-.04-.44-.2-1-.49-1.68-.29-.68-.77-1.37-1.45-2.1-.13-.14-.17-.33-.11-.56.06-.23.18-.37.35-.42.75-.19,1.5-.41,2.25-.65.17,2.05.33,4.11.5,6.16.19.85.44,1.63.72,2.33.13.31.27.61.42.92.15.31.32.59.51.85.18.26.39.49.6.69.22.2.45.34.71.45Zm-4.6-12.01c-.2.06-.39.06-.58.02-.19-.04-.36-.13-.5-.27-.15-.14-.27-.31-.37-.51-.1-.21-.16-.44-.18-.7-.03-.26-.01-.51.04-.75.05-.24.14-.46.26-.65.12-.19.27-.36.44-.5.17-.14.36-.24.57-.29.21-.05.4-.05.59,0,.19.05.35.13.5.26.15.12.27.28.37.47.1.19.16.42.18.68.04.51-.07.99-.33,1.43-.26.44-.59.72-.99.83Z"/></g><g class="cls-3"><path class="cls-1" d="m38.82,78.07c.07.02.11.09.13.19.02.1.01.21-.02.32-.03.11-.07.22-.13.32-.06.1-.13.17-.21.21-1.68.86-3.36,1.62-5.03,2.21-.09.03-.17.02-.24-.03-.07-.05-.13-.11-.18-.19-.04-.08-.07-.18-.07-.29,0-.11.03-.22.09-.32.46-.66.8-1.43,1.04-2.27.24-.85.4-1.64.5-2.39.12-.87.19-1.75.19-2.65-.03-.37-.06-.73-.1-1.1-.04-.44-.2-1-.49-1.68-.29-.68-.77-1.37-1.45-2.1-.13-.14-.17-.33-.11-.56.06-.23.18-.37.35-.42.75-.19,1.5-.41,2.25-.65.17,2.05.33,4.11.5,6.16.19.85.44,1.63.72,2.33.13.31.27.61.42.92.15.31.32.59.51.85.18.26.39.49.6.69.22.2.45.34.71.45Zm-4.6-12.01c-.2.06-.39.06-.58.02-.19-.04-.36-.13-.5-.27-.15-.14-.27-.31-.37-.51-.1-.21-.16-.44-.18-.7-.03-.26-.01-.51.04-.75.05-.24.14-.46.26-.65.12-.19.27-.36.44-.5.17-.14.36-.24.57-.29.21-.05.4-.05.59,0,.19.05.35.13.5.26.15.12.27.28.37.47.1.19.16.42.18.68.04.51-.07.99-.33,1.43-.26.44-.59.72-.99.83Z"/></g></g><g class="cls-3"><g class="cls-3"><path class="cls-2" d="m51.41,70.7c.07.01.12.06.14.14.02.08.02.17,0,.27-.02.1-.05.19-.1.29-.05.1-.12.17-.2.22-1.34.8-2.69,1.63-4.03,2.46-.09.05-.16.07-.22.04-.06-.03-.11-.07-.14-.14-.03-.07-.04-.15-.03-.26,0-.1.04-.21.1-.32.15-.28.28-.56.37-.84.09-.28.16-.56.21-.84.04-.22.04-.41,0-.59-.03-.17-.08-.32-.14-.46-.06-.14-.14-.28-.22-.41-.08-.14-.16-.27-.23-.4-.06-.15-.2-.34-.41-.58-.21-.23-.44-.45-.69-.66-.24-.2-.47-.36-.68-.48-.21-.12-.34-.13-.39-.03-.08.19-.12.44-.13.77,0,.33.01.69.07,1.08.05.39.13.79.24,1.2.11.41.22.8.35,1.16.13.36.27.68.42.96.15.27.31.46.48.56.06.04.09.1.1.19.01.09,0,.19-.03.29-.03.1-.08.21-.14.31-.07.11-.14.18-.23.24-2,1.23-3.99,2.44-5.99,3.52-.09.05-.16.05-.21,0-.06-.05-.09-.11-.11-.2-.02-.09-.02-.19,0-.31.02-.12.07-.23.13-.32.51-.73.96-1.43,1.34-2.09.38-.66.71-1.27.98-1.82.27-.55.5-1.04.67-1.46.17-.43.3-.77.38-1.04.35-1.07.72-2.14,1.09-3.21-.13-.17-.29-.35-.5-.56-.21-.21-.46-.42-.76-.64-.3-.22-.66-.42-1.07-.62-.41-.2-.88-.38-1.41-.55-.08-.03-.13-.09-.16-.18-.03-.09-.04-.19-.02-.29.02-.1.05-.21.11-.3.05-.1.13-.17.22-.21,1.28-.56,2.56-1.16,3.84-1.77.26-.13.42-.1.46.08.04.18,0,.38-.12.6-.2.33-.32.64-.34.91-.02.28.02.52.13.73.04.07.11.19.19.37.09.18.19.37.3.58.11.21.23.42.37.64.14.22.27.4.4.55.13.15.27.25.4.31.13.06.25.04.35-.06.08-.07.13-.19.15-.35.02-.16.02-.34,0-.54-.03-.2-.06-.41-.12-.64-.05-.23-.11-.46-.19-.69-.16-.56-.37-1.16-.63-1.82-.06-.14-.16-.25-.29-.33-.06-.04-.1-.11-.11-.2-.01-.09,0-.19.03-.29.03-.1.08-.2.15-.3.07-.1.15-.17.24-.21,1.85-.9,3.69-1.81,5.54-2.67.09-.04.17-.04.22,0,.05.04.08.11.09.19.01.08,0,.18-.03.29-.03.11-.09.21-.17.3-.74.85-1.36,1.67-1.87,2.44-.51.77-.92,1.46-1.24,2.06-.32.6-.56,1.09-.72,1.48-.16.39-.25.63-.28.73.32.65.62,1.29.93,1.93.19.42.56.78,1.1,1.09.54.3,1.23.53,2.05.7Z"/></g><g class="cls-3"><path class="cls-1" d="m51.41,70.7c.07.01.12.06.14.14.02.08.02.17,0,.27-.02.1-.05.19-.1.29-.05.1-.12.17-.2.22-1.34.8-2.69,1.63-4.03,2.46-.09.05-.16.07-.22.04-.06-.03-.11-.07-.14-.14-.03-.07-.04-.15-.03-.26,0-.1.04-.21.1-.32.15-.28.28-.56.37-.84.09-.28.16-.56.21-.84.04-.22.04-.41,0-.59-.03-.17-.08-.32-.14-.46-.06-.14-.14-.28-.22-.41-.08-.14-.16-.27-.23-.4-.06-.15-.2-.34-.41-.58-.21-.23-.44-.45-.69-.66-.24-.2-.47-.36-.68-.48-.21-.12-.34-.13-.39-.03-.08.19-.12.44-.13.77,0,.33.01.69.07,1.08.05.39.13.79.24,1.2.11.41.22.8.35,1.16.13.36.27.68.42.96.15.27.31.46.48.56.06.04.09.1.1.19.01.09,0,.19-.03.29-.03.1-.08.21-.14.31-.07.11-.14.18-.23.24-2,1.23-3.99,2.44-5.99,3.52-.09.05-.16.05-.21,0-.06-.05-.09-.11-.11-.2-.02-.09-.02-.19,0-.31.02-.12.07-.23.13-.32.51-.73.96-1.43,1.34-2.09.38-.66.71-1.27.98-1.82.27-.55.5-1.04.67-1.46.17-.43.3-.77.38-1.04.35-1.07.72-2.14,1.09-3.21-.13-.17-.29-.35-.5-.56-.21-.21-.46-.42-.76-.64-.3-.22-.66-.42-1.07-.62-.41-.2-.88-.38-1.41-.55-.08-.03-.13-.09-.16-.18-.03-.09-.04-.19-.02-.29.02-.1.05-.21.11-.3.05-.1.13-.17.22-.21,1.28-.56,2.56-1.16,3.84-1.77.26-.13.42-.1.46.08.04.18,0,.38-.12.6-.2.33-.32.64-.34.91-.02.28.02.52.13.73.04.07.11.19.19.37.09.18.19.37.3.58.11.21.23.42.37.64.14.22.27.4.4.55.13.15.27.25.4.31.13.06.25.04.35-.06.08-.07.13-.19.15-.35.02-.16.02-.34,0-.54-.03-.2-.06-.41-.12-.64-.05-.23-.11-.46-.19-.69-.16-.56-.37-1.16-.63-1.82-.06-.14-.16-.25-.29-.33-.06-.04-.1-.11-.11-.2-.01-.09,0-.19.03-.29.03-.1.08-.2.15-.3.07-.1.15-.17.24-.21,1.85-.9,3.69-1.81,5.54-2.67.09-.04.17-.04.22,0,.05.04.08.11.09.19.01.08,0,.18-.03.29-.03.11-.09.21-.17.3-.74.85-1.36,1.67-1.87,2.44-.51.77-.92,1.46-1.24,2.06-.32.6-.56,1.09-.72,1.48-.16.39-.25.63-.28.73.32.65.62,1.29.93,1.93.19.42.56.78,1.1,1.09.54.3,1.23.53,2.05.7Z"/></g></g><g class="cls-3"><g class="cls-3"><path class="cls-2" d="m60.22,66.54c-.02.18-.09.35-.21.51-.12.16-.25.27-.39.32-1.45.57-2.91,1.25-4.36,2-.93.36-1.75.49-2.47.36-.31-.05-.6-.17-.9-.34-.3-.17-.55-.44-.78-.8-.22-.36-.4-.83-.54-1.41-.13-.58-.19-1.3-.17-2.16,0-.3.04-.65.1-1.05.06-.39.17-.82.33-1.27.16-.45.38-.93.68-1.43.29-.5.67-1,1.14-1.49.47-.49,1.05-.97,1.73-1.42.68-.45,1.48-.86,2.41-1.21.88-.33,1.61-.45,2.19-.38.58.07,1.02.25,1.33.54.31.29.5.64.58,1.05.08.42.06.82-.05,1.22-.16.64-.46,1.25-.87,1.84-.42.59-.87,1.11-1.36,1.59-.49.48-.97.89-1.44,1.24-.47.35-.84.59-1.13.72-.52.24-1.03.4-1.54.48-.5.08-.95.02-1.36-.17-.4-.19-.73-.55-.99-1.09-.26-.53-.4-1.29-.43-2.28-.19,1.43-.17,2.49.05,3.18.22.68.58,1.11,1.06,1.27.48.17,1.06.14,1.73-.08.67-.21,1.36-.48,2.08-.81.15-.07.33-.17.56-.32.23-.14.49-.34.78-.59.29-.25.61-.54.96-.89.35-.34.71-.75,1.1-1.21.09-.1.18-.17.28-.2.1-.03.18-.02.25.04.07.06.1.16.08.3,0,.05-.02.14-.03.28-.02.13-.04.3-.06.49-.02.19-.05.4-.07.63-.02.23-.05.46-.07.69-.07.55-.14,1.16-.22,1.83Zm-2.39-4.29c.11-.33.16-.66.15-.97,0-.31-.08-.6-.21-.85-.13-.25-.35-.46-.64-.62-.3-.16-.68-.24-1.16-.24-.24,0-.48.02-.72.09-.24.06-.48.15-.72.25-.3.13-.58.28-.85.45-.27.17-.5.33-.71.5-.24.19-.46.38-.66.57.01.17.04.43.07.77.03.35.12.69.27,1.04.15.35.38.65.7.9.32.25.78.37,1.38.35.43-.01.86-.11,1.28-.3.43-.19.8-.46,1.13-.79.33-.34.56-.71.7-1.13Z"/><path class="cls-2" d="m66.45,65.03c.08.12.07.27-.03.45-.1.17-.23.27-.39.28-1.64.16-3.29.54-4.93,1.08-.16.05-.26,0-.31-.15-.04-.16,0-.32.12-.5.35-.51.66-.99.93-1.44.27-.46.51-.87.72-1.26.2-.38.37-.72.49-1.02.12-.29.2-.52.23-.69.36-1.51.73-3.01,1.1-4.5.09-.35.07-.81-.08-1.38-.15-.57-.47-1.16-.98-1.77-.1-.12-.1-.27,0-.46.1-.19.24-.3.42-.32,1.16-.17,2.32-.26,3.49-.26.18,0,.29.09.34.26.04.17,0,.32-.14.45-.71.67-1.23,1.34-1.57,1.94-.34.61-.51,1.09-.52,1.43-.06,1.44-.12,2.87-.19,4.3.02.33.08.69.18,1.08.08.34.2.72.38,1.14.17.42.42.87.72,1.34Z"/></g><g class="cls-3"><path class="cls-1" d="m60.22,66.54c-.02.18-.09.35-.21.51-.12.16-.25.27-.39.32-1.45.57-2.91,1.25-4.36,2-.93.36-1.75.49-2.47.36-.31-.05-.6-.17-.9-.34-.3-.17-.55-.44-.78-.8-.22-.36-.4-.83-.54-1.41-.13-.58-.19-1.3-.17-2.16,0-.3.04-.65.1-1.05.06-.39.17-.82.33-1.27.16-.45.38-.93.68-1.43.29-.5.67-1,1.14-1.49.47-.49,1.05-.97,1.73-1.42.68-.45,1.48-.86,2.41-1.21.88-.33,1.61-.45,2.19-.38.58.07,1.02.25,1.33.54.31.29.5.64.58,1.05.08.42.06.82-.05,1.22-.16.64-.46,1.25-.87,1.84-.42.59-.87,1.11-1.36,1.59-.49.48-.97.89-1.44,1.24-.47.35-.84.59-1.13.72-.52.24-1.03.4-1.54.48-.5.08-.95.02-1.36-.17-.4-.19-.73-.55-.99-1.09-.26-.53-.4-1.29-.43-2.28-.19,1.43-.17,2.49.05,3.18.22.68.58,1.11,1.06,1.27.48.17,1.06.14,1.73-.08.67-.21,1.36-.48,2.08-.81.15-.07.33-.17.56-.32.23-.14.49-.34.78-.59.29-.25.61-.54.96-.89.35-.34.71-.75,1.1-1.21.09-.1.18-.17.28-.2.1-.03.18-.02.25.04.07.06.1.16.08.3,0,.05-.02.14-.03.28-.02.13-.04.3-.06.49-.02.19-.05.4-.07.63-.02.23-.05.46-.07.69-.07.55-.14,1.16-.22,1.83Zm-2.39-4.29c.11-.33.16-.66.15-.97,0-.31-.08-.6-.21-.85-.13-.25-.35-.46-.64-.62-.3-.16-.68-.24-1.16-.24-.24,0-.48.02-.72.09-.24.06-.48.15-.72.25-.3.13-.58.28-.85.45-.27.17-.5.33-.71.5-.24.19-.46.38-.66.57.01.17.04.43.07.77.03.35.12.69.27,1.04.15.35.38.65.7.9.32.25.78.37,1.38.35.43-.01.86-.11,1.28-.3.43-.19.8-.46,1.13-.79.33-.34.56-.71.7-1.13Z"/><path class="cls-1" d="m66.45,65.03c.08.12.07.27-.03.45-.1.17-.23.27-.39.28-1.64.16-3.29.54-4.93,1.08-.16.05-.26,0-.31-.15-.04-.16,0-.32.12-.5.35-.51.66-.99.93-1.44.27-.46.51-.87.72-1.26.2-.38.37-.72.49-1.02.12-.29.2-.52.23-.69.36-1.51.73-3.01,1.1-4.5.09-.35.07-.81-.08-1.38-.15-.57-.47-1.16-.98-1.77-.1-.12-.1-.27,0-.46.1-.19.24-.3.42-.32,1.16-.17,2.32-.26,3.49-.26.18,0,.29.09.34.26.04.17,0,.32-.14.45-.71.67-1.23,1.34-1.57,1.94-.34.61-.51,1.09-.52,1.43-.06,1.44-.12,2.87-.19,4.3.02.33.08.69.18,1.08.08.34.2.72.38,1.14.17.42.42.87.72,1.34Z"/></g></g></g><path class="cls-2" d="m51.93,2c.25,0,.47.01.68.04.87.1,1.78.45,2.74.82.78.3,1.59.61,2.46.82.89.22,1.76.32,2.6.42,1.02.12,1.98.24,2.77.54.81.31,1.61.86,2.45,1.45.69.48,1.4.98,2.2,1.39.81.42,1.62.73,2.42,1.03.96.36,1.86.71,2.57,1.19.71.49,1.35,1.22,2.03,1.99.56.63,1.14,1.29,1.81,1.89.68.6,1.4,1.1,2.1,1.58.84.58,1.64,1.13,2.21,1.77.57.64,1.02,1.5,1.49,2.41.39.75.8,1.53,1.32,2.27.51.74,1.09,1.39,1.65,2.02.68.77,1.33,1.49,1.73,2.25.4.75.63,1.69.87,2.69.2.82.41,1.67.73,2.53.32.84.72,1.61,1.11,2.35.48.91.94,1.77,1.14,2.62.2.82.2,1.78.2,2.81,0,.85,0,1.73.11,2.64.11.89.32,1.73.52,2.54.25,1,.48,1.95.48,2.82s-.23,1.82-.48,2.82c-.2.81-.41,1.65-.52,2.54-.11.91-.11,1.79-.11,2.64,0,1.02,0,1.99-.2,2.81-.21.84-.66,1.7-1.14,2.62-.39.74-.8,1.51-1.11,2.35-.32.85-.53,1.7-.73,2.53-.24.99-.47,1.93-.87,2.69-.4.76-1.05,1.49-1.73,2.25-.56.63-1.14,1.28-1.66,2.02-.52.75-.92,1.52-1.32,2.27-.48.91-.92,1.77-1.49,2.41-.57.64-1.37,1.19-2.21,1.77-.7.48-1.42.97-2.1,1.58-.68.6-1.26,1.26-1.81,1.89-.68.77-1.32,1.5-2.03,1.99-.7.49-1.61.83-2.57,1.19-.79.3-1.61.61-2.42,1.03-.8.42-1.51.92-2.2,1.39-.85.59-1.64,1.14-2.45,1.45-.79.3-1.75.42-2.77.54-.84.1-1.71.2-2.6.42-.87.21-1.68.52-2.46.82-.96.37-1.88.71-2.74.82-.21.03-.43.04-.68.04-.66,0-1.36-.09-2.11-.18-.85-.1-1.73-.21-2.65-.21s-1.8.11-2.65.21c-.75.09-1.46.18-2.11.18-.25,0-.47-.01-.68-.04-.87-.1-1.78-.45-2.74-.82-.78-.3-1.59-.61-2.46-.82-.89-.22-1.76-.32-2.6-.42-1.02-.12-1.98-.24-2.77-.54-.81-.31-1.61-.86-2.45-1.45-.69-.48-1.4-.98-2.2-1.39-.81-.42-1.62-.73-2.42-1.03-.96-.36-1.86-.71-2.57-1.19-.71-.49-1.35-1.22-2.03-1.99-.56-.63-1.14-1.29-1.81-1.89-.68-.6-1.4-1.1-2.1-1.58-.84-.58-1.64-1.13-2.21-1.77-.57-.64-1.02-1.5-1.49-2.41-.39-.75-.8-1.53-1.32-2.27-.51-.74-1.09-1.39-1.65-2.02-.68-.77-1.33-1.49-1.73-2.25-.4-.75-.63-1.69-.87-2.69-.2-.82-.41-1.67-.73-2.53-.32-.84-.72-1.61-1.11-2.35-.48-.91-.94-1.77-1.14-2.62-.2-.82-.2-1.78-.2-2.81,0-.85,0-1.73-.11-2.64-.11-.89-.32-1.73-.52-2.54-.25-1-.48-1.95-.48-2.82s.23-1.82.48-2.82c.2-.81.41-1.65.52-2.54.11-.91.11-1.79.11-2.64,0-1.02,0-1.99.2-2.81.21-.84.66-1.7,1.14-2.62.39-.74.8-1.51,1.11-2.35.32-.85.53-1.7.73-2.53.24-.99.47-1.93.87-2.69.4-.76,1.05-1.49,1.73-2.25.56-.63,1.14-1.28,1.66-2.02.52-.75.92-1.52,1.32-2.27.48-.91.92-1.77,1.49-2.41.57-.64,1.37-1.19,2.21-1.77.7-.48,1.42-.97,2.1-1.58.68-.6,1.26-1.26,1.81-1.89.68-.77,1.32-1.5,2.03-1.99.7-.49,1.61-.83,2.57-1.19.79-.3,1.61-.61,2.42-1.03.8-.42,1.51-.92,2.2-1.39.85-.59,1.64-1.14,2.45-1.45.79-.3,1.75-.42,2.77-.54.84-.1,1.71-.2,2.6-.42.87-.21,1.68-.52,2.46-.82.96-.37,1.88-.71,2.74-.82.21-.03.43-.04.68-.04.66,0,1.36.09,2.11.18.85.1,1.73.21,2.65.21s1.8-.11,2.65-.21c.75-.09,1.46-.18,2.11-.18m-9.53-2c-.31,0-.62.02-.92.05-1.89.23-3.63,1.24-5.44,1.68-1.85.45-3.85.37-5.6,1.03-1.77.67-3.21,2.07-4.88,2.94-1.67.88-3.64,1.28-5.19,2.35-1.55,1.07-2.62,2.77-4.03,4.02-1.41,1.25-3.23,2.11-4.48,3.52-1.25,1.41-1.88,3.31-2.96,4.87-1.07,1.55-2.63,2.81-3.51,4.48-.87,1.66-1.03,3.66-1.7,5.43-.66,1.75-1.88,3.35-2.33,5.2-.45,1.82-.12,3.79-.35,5.69-.22,1.85-1.01,3.69-1.01,5.6s.79,3.75,1.01,5.6c.23,1.89-.1,3.87.35,5.69.45,1.85,1.66,3.45,2.33,5.2.67,1.77.83,3.77,1.7,5.43.88,1.67,2.44,2.94,3.51,4.48,1.07,1.55,1.71,3.46,2.96,4.87,1.25,1.41,3.07,2.27,4.48,3.52,1.41,1.25,2.48,2.95,4.03,4.02,1.55,1.07,3.51,1.47,5.19,2.35,1.66.87,3.1,2.27,4.88,2.94,1.75.66,3.76.58,5.6,1.03,1.82.45,3.55,1.45,5.44,1.68.31.04.61.05.92.05,1.56,0,3.17-.39,4.77-.39s3.2.39,4.77.39c.31,0,.62-.02.92-.05,1.89-.23,3.63-1.24,5.44-1.68,1.85-.45,3.85-.37,5.6-1.03,1.77-.67,3.21-2.07,4.88-2.94,1.67-.88,3.64-1.28,5.19-2.35,1.55-1.07,2.62-2.77,4.03-4.02,1.41-1.25,3.23-2.11,4.48-3.52,1.25-1.41,1.88-3.31,2.96-4.87,1.07-1.55,2.63-2.81,3.51-4.48.87-1.66,1.03-3.66,1.7-5.43.66-1.75,1.88-3.35,2.33-5.2.45-1.82.12-3.79.35-5.69.22-1.85,1.01-3.69,1.01-5.6s-.79-3.75-1.01-5.6c-.23-1.89.1-3.87-.35-5.69-.45-1.85-1.66-3.45-2.33-5.2-.67-1.77-.83-3.77-1.7-5.43-.88-1.67-2.44-2.94-3.51-4.48-1.07-1.55-1.71-3.46-2.96-4.87-1.25-1.41-3.07-2.27-4.48-3.52-1.41-1.25-2.48-2.95-4.03-4.02-1.55-1.07-3.51-1.47-5.19-2.35-1.66-.87-3.1-2.27-4.88-2.94-1.75-.66-3.76-.58-5.6-1.03-1.82-.45-3.55-1.45-5.44-1.68C52.54.02,52.24,0,51.93,0,50.36,0,48.76.39,47.16.39s-3.2-.39-4.77-.39h0Z"/></svg>