<?xml version="1.0" encoding="UTF-8"?><svg id="Ebene_1" xmlns="http://www.w3.org/2000/svg" viewBox="0 0 109.1 110.4"><defs><style>.cls-1{fill:#9d83bb;}.cls-2{fill:none;stroke:#1d1d1b;stroke-miterlimit:10;stroke-width:1.3px;}</style></defs><polygon class="cls-1" points="109.04 55.2 74.99 58.58 106.45 72.03 72.98 64.92 98.84 87.33 69.15 70.34 86.88 99.59 63.9 74.26 71.6 107.58 57.79 76.29 54.55 110.34 51.31 76.29 37.5 107.58 45.2 74.26 22.22 99.59 39.96 70.34 10.26 87.33 36.12 64.92 2.65 72.03 34.11 58.58 .06 55.2 34.11 51.82 2.65 38.37 36.12 45.48 10.27 23.07 39.96 40.07 22.22 10.81 45.21 36.14 37.5 2.82 51.31 34.11 54.55 .06 57.79 34.11 71.6 2.82 63.9 36.14 86.88 10.81 69.15 40.07 98.84 23.07 72.98 45.48 106.45 38.37 74.99 51.82 109.04 55.2"/><polygon class="cls-2" points="109.04 55.2 74.99 58.58 106.45 72.03 72.98 64.92 98.84 87.33 69.15 70.34 86.88 99.59 63.9 74.26 71.6 107.58 57.79 76.29 54.55 110.34 51.31 76.29 37.5 107.58 45.2 74.26 22.22 99.59 39.96 70.34 10.26 87.33 36.12 64.92 2.65 72.03 34.11 58.58 .06 55.2 34.11 51.82 2.65 38.37 36.12 45.48 10.27 23.07 39.96 40.07 22.22 10.81 45.21 36.14 37.5 2.82 51.31 34.11 54.55 .06 57.79 34.11 71.6 2.82 63.9 36.14 86.88 10.81 69.15 40.07 98.84 23.07 72.98 45.48 106.45 38.37 74.99 51.82 109.04 55.2"/></svg>