<?xml version="1.0" encoding="UTF-8"?><svg id="Ebene_1" xmlns="http://www.w3.org/2000/svg" viewBox="0 0 102.37 102.44"><defs><style>.cls-1{font-family:HelveticaNeue-Bold, 'Helvetica Neue';font-size:16px;font-weight:700;stroke-width:.5px;}.cls-1,.cls-2{fill:#fff;stroke:#1d1d1b;stroke-miterlimit:10;}.cls-2{stroke-width:.3px;}</style></defs><text class="cls-1" transform="translate(26.22 22.8) rotate(-31.84)"><tspan x="0" y="0">O</tspan></text><text class="cls-1" transform="translate(36.41 16.56) rotate(-15.1)"><tspan x="0" y="0">S</tspan></text><text class="cls-1" transform="translate(45.98 13.82) rotate(1.13)"><tspan x="0" y="0">C</tspan></text><text class="cls-1" transform="translate(57.49 14.4) rotate(13.13)"><tspan x="0" y="0"> </tspan></text><text class="cls-1" transform="translate(61.65 14.93) rotate(25.2)"><tspan x="0" y="0">H</tspan></text><text class="cls-1" transform="translate(71.95 19.78) rotate(41.88)"><tspan x="0" y="0">A</tspan></text><text class="cls-1" transform="translate(79.8 26.79) rotate(57.42)"><tspan x="0" y="0">Z</tspan></text><text class="cls-1" transform="translate(85.23 35.1) rotate(73.08)"><tspan x="0" y="0">A</tspan></text><text class="cls-1" transform="translate(88.34 45.1) rotate(89.07)"><tspan x="0" y="0">R</tspan></text><text class="cls-1" transform="translate(88.58 56.2) rotate(106.61)"><tspan x="0" y="0">D</tspan></text><text class="cls-1" transform="translate(84.95 67.12) rotate(118.68)"><tspan x="0" y="0"> </tspan></text><text class="cls-1" transform="translate(83.27 71) rotate(130.47)"><tspan x="0" y="0">R</tspan></text><text class="cls-1" transform="translate(76.06 79.42) rotate(146.43)"><tspan x="0" y="0">E</tspan></text><text class="cls-1" transform="translate(67.9 85.05) rotate(162.72)"><tspan x="0" y="0">C</tspan></text><text class="cls-1" transform="translate(57.11 88.59) rotate(-179.07)"><tspan x="0" y="0">O</tspan></text><text class="cls-1" transform="translate(45.12 88.45) rotate(-162.01)"><tspan x="0" y="0">R</tspan></text><text class="cls-1" transform="translate(34.58 85.13) rotate(-144.88)"><tspan x="0" y="0">D</tspan></text><text class="cls-1" transform="translate(25.36 78.21) rotate(-132.91)"><tspan x="0" y="0"> </tspan></text><text class="cls-1" transform="translate(22.26 75.32) rotate(-121.97)"><tspan x="0" y="0">S</tspan></text><text class="cls-1" transform="translate(16.96 66.88) rotate(-107.14)"><tspan x="0" y="0">T</tspan></text><text class="cls-1" transform="translate(13.98 58.03) rotate(-90.93)"><tspan x="0" y="0">O</tspan></text><text class="cls-1" transform="translate(13.77 46.09) rotate(-73.43)"><tspan x="0" y="0">R</tspan></text><text class="cls-1" transform="translate(16.95 35.48) rotate(-57.34)"><tspan x="0" y="0">E</tspan></text><text class="cls-1" transform="translate(22.61 27.12) rotate(-46.41)"><tspan x="0" y="0">	</tspan></text><path class="cls-2" d="m41.47,55.21c-4.89-2.92-11.98-4.01-22.03-4.01,10.05,0,17.14-1.09,22.03-4.01.69,2.69.68,5.33,0,8.02Z"/><path class="cls-2" d="m55.16,60.88c-2.92,4.89-4.01,11.98-4.01,22.03,0-10.05-1.09-17.14-4.01-22.03,2.69-.68,5.33-.68,8.02,0Z"/><path class="cls-2" d="m55.15,41.51c-2.69.68-5.31.68-8,0,2.92-4.89,4-11.98,4-22.02,0,10.04,1.08,17.13,4,22.02Z"/><path class="cls-2" d="m82.86,51.2c-10.03,0-17.12,1.08-22.01,4-.68-2.69-.68-5.31,0-8,4.89,2.92,11.98,4,22.01,4Z"/><path class="cls-2" d="m73.58,73.62c-7.11-7.11-12.89-11.36-18.42-12.74-2.69-.68-5.33-.68-8.02,0-5.52,1.4-11.3,5.64-18.4,12.74,7.1-7.1,11.34-12.88,12.73-18.41.68-2.69.69-5.33,0-8.02-1.33-5.31-5.3-10.86-11.92-17.6,6.73,6.61,12.29,10.59,17.6,11.92,2.69.68,5.31.68,8,0,5.32-1.32,10.88-5.3,17.62-11.92-6.62,6.74-10.59,12.3-11.92,17.61-.68,2.69-.68,5.31,0,8,1.39,5.53,5.63,11.32,12.73,18.42Z"/></svg>